# AST/ASF file generated using VICON BodyLanguage
# -----------------------------------------------
:version 1.10
:name VICON
:units
  mass 1.0
  length 0.45
  angle deg
:documentation
   .ast/.asf automatically generated from VICON data using
   VICON BodyBuilder and BodyLanguage model FoxedUp or BRILLIANT.MOD
:root
   order TX TY TZ RX RY RZ
   axis XYZ
   position 0 0 0  
   orientation 0 -0 0 
:bonedata
  begin
     id 1 
     name lhipjoint
     direction 0.432694 -0.693742 0.575759 
     length 2.19277 
     axis 0 -0 0  XYZ
  end
  begin
     id 2 
     name lfemur
     direction 0.34202 -0.939693 0  
     length 6.69022  
     axis 0 -0 20  XYZ
    dof rx ry rz
    limits (-160.0 20.0)
           (-70.0 70.0)
           (-60.0 70.0)
  end
  begin
     id 3 
     name ltibia
     direction 0.34202 -0.939693 0   
     length 6.50337   
     axis 0 -0 20   XYZ
    dof rx
    limits (-10.0 170.0)
  end
  begin
     id 4 
     name lfoot
     direction 0.158999 -0.435969 0.885805   
     length 2.70564   
     axis -90 -1.13533e-015 20   XYZ
    dof rx rz
    limits (-45.0 90.0)
           (-70.0 20.0)
  end
  begin
     id 5 
     name ltoes
     direction -0.00592919 0.00964381 0.999936   
     length 1.29929   
     axis -90 -1.13533e-015 20   XYZ
    dof rx
    limits (-90.0 20.0)
  end
  begin
     id 6 
     name rhipjoint
     direction -0.414359 -0.700339 0.581234   
     length 2.17212  
     axis 0 -0 0  XYZ 
  end
  begin
     id 7 
     name rfemur
     direction -0.34202 -0.939693 0   
     length 7.17659   
     axis 0 -0 -20   XYZ
    dof rx ry rz
    limits (-160.0 20.0)
           (-70.0 70.0)
           (-70.0 60.0)
  end
  begin
     id 8 
     name rtibia
     direction -0.34202 -0.939693 0   
     length 6.36669   
     axis 0 -0 -20   XYZ
    dof rx
    limits (-10.0 170.0)
 end
 begin
     id 9 
     name rfoot
     direction -0.137064 -0.37658 0.916188   
     length 2.22351  
     axis -90 1.13533e-015 -20   XYZ
    dof rx rz
    limits (-45.0 90.0)
           (-20.0 70.0)
  end
  begin
     id 10 
     name rtoes
     direction -0.000784077 -0.00289101 0.999996   
     length 1.09522   
     axis -90 1.13533e-015 -20   XYZ
    dof rx
    limits (-90.0 20.0)
  end
  begin
     id 11 
     name lowerback
     direction -0.0176242 0.984912 -0.172157   
     length 1.65301   
     axis 0 -0 0   XYZ
    dof rx ry rz
    limits (-20.0 45.0)
           (-30.0 30.0)
           (-30.0 30.0)
  end
  begin
     id 12 
     name upperback
     direction -0.00218128 0.998776 -0.0494072   
     length 1.67776   
     axis 0 -0 0   XYZ
    dof rx ry rz
    limits (-20.0 45.0)
           (-30.0 30.0)
           (-30.0 30.0)
  end
  begin
     id 13 
     name thorax
     direction 0.00544186 0.999658 0.0255711   
     length 1.72293   
     axis 0 -0 0   XYZ
    dof rx ry rz
    limits (-20.0 45.0)
           (-30.0 30.0)
           (-30.0 30.0)
  end
  begin
     id 14 
     name lowerneck
     direction -0.105325 0.983841 0.144785   
     length 2.14226   
     axis 0 -0 0   XYZ
    dof rx ry rz
    limits (-20.0 45.0)
           (-30.0 30.0)
           (-30.0 30.0)
  end
  begin
     id 15 
     name upperneck
     direction 0.0547957 0.988053 -0.144041   
     length 2.17508   
     axis 0 -0 0   XYZ
    dof rx ry rz
    limits (-20.0 45.0)
           (-30.0 30.0)
           (-30.0 30.0)
  end
  begin
     id 16
     name head
     direction 0.0247488 0.997534 -0.0656813  
     length 2.20048  
     axis 0 -0 0   XYZ
    dof rx ry rz
    limits (-20.0 45.0)
           (-30.0 30.0)
           (-30.0 30.0)
  end
  begin
     id 17 
     name lclavicle
     direction 0.820559 0.567247 -0.0701026  
     length 4.09615  
     axis 0 -0 0   XYZ
    dof ry rz
    limits (-20.0 10.0)
           (0.0 20.0)
  end
  begin
     id 18 
     name lhumerus
     direction 0.999977 -0.0067566 -9.96392e-005   
     length 4.59333   
     axis -180 -30 -90   XYZ
    dof rx ry rz
    limits (-60.0 90.0)
           (-90.0 90.0)
           (-90.0 90.0)
  end
  begin
     id 19
     name lradius
     direction 1 -4.48982e-011 -2.53425e-027   
     length 2.81151   
     axis -180 -30 -90   XYZ
    dof rx
    limits (-10.0 170.0)
  end
  begin
     id 20
     name lwrist
     direction 1 -4.48939e-011 -7.39254e-028   
     length 1.40576   
     axis 2.56395e-016 90 90   XYZ
    dof ry
    limits (-180.0 0.0)
 end
  begin
     id 21 
     name lhand
     direction 1 -4.48939e-011 -1.47851e-027   
     length 0.895651   
     axis 9.43423e-016 90 90   XYZ
    dof rx rz
    limits (-90.0 90.0)
           (-45.0 45.0)
  end
  begin
     id 22 
     name lfingers
     direction 1 -4.48978e-011 -2.95702e-027   
     length 0.722097   
     axis 1.88685e-015 90 90   XYZ
    dof rx
    limits (0.0 90.0)
  end
  begin
     id 23
     name lthumb
     direction 0.707107 -6.34931e-011 0.707107   
     length 1.03679   
     axis -90 45 -9.86935e-015   XYZ
    dof rx rz
    limits (-45.0 45.0)
           (-45.0 45.0)
  end
  begin
     id 24 
     name rclavicle
     direction -0.831414 0.553102 -0.0531864   
     length 4.24872  
     axis 0 -0 0   XYZ 
    dof ry rz
    limits (-10.0 20.0)
           (-20.0 0.0)
  end
  begin
     id 25 
     name rhumerus
     direction -0.999916 -0.000939607 0.0129331  
     length 4.74834   
     axis -180 30 90   XYZ
    dof rx ry rz
    limits (-90.0 60.0)
           (-90.0 90.0)
           (-90.0 90.0)
  end
  begin
     id 26 
     name rradius
     direction -1 -4.48956e-011 -1.31752e-027   
     length 2.79907   
     axis -180 30 90   XYZ
    dof rx
    limits (-10.0 170.0)
  end
  begin
     id 27 
     name rwrist
     direction -1 -4.4897e-011 -7.39254e-028   
     length 1.39954   
     axis 2.56395e-016 -90 -90   XYZ
    dof ry
    limits (-180.0 0.0)
  end
  begin
     id 28
     name rhand
     direction -0.999997 -0.00250697 0.000800838   
     length 0.953304   
     axis 9.43423e-016 -90 -90   XYZ
    dof rx rz
    limits (-90.0 90.0)
           (-45.0 45.0)
  end
  begin
     id 29
     name rfingers
     direction -1 -4.48954e-011 -2.95702e-027   
     length 0.763342   
     axis 1.88685e-015 -90 -90   XYZ
    dof rx
    limits (0.0 90.0)
  end
  begin
     id 30
     name rthumb
     direction -0.709701 -0.00217037 0.7045   
     length 1.10115   
     axis -90 -45 9.86935e-015   XYZ
    dof rx rz
    limits (-45.0 45.0)
           (-45.0 45.0)
  end
:hierarchy
  begin
    root lhipjoint rhipjoint lowerback
    lhipjoint lfemur
    lfemur ltibia
    ltibia lfoot
    lfoot ltoes
    rhipjoint rfemur
    rfemur rtibia
    rtibia rfoot
    rfoot rtoes
    lowerback upperback
    upperback thorax
    thorax lowerneck lclavicle rclavicle
    lowerneck upperneck
    upperneck head
    lclavicle lhumerus
    lhumerus lradius
    lradius lwrist
    lwrist lhand lthumb
    lhand lfingers
    rclavicle rhumerus
    rhumerus rradius
    rradius rwrist
    rwrist rhand rthumb
    rhand rfingers
  end

#!OML:ASF G:\ViconDB\ViconDB\414\test\team2\shane.ASF
:FULLY-SPECIFIED
:DEGREES
17
root -6.91896 16.9203 -18.7833 -2.60324 -15.9156 -4.28441
lowerback 10.5384 3.49148 5.12474
upperback 3.93287 5.13003 0.736744
thorax -1.4014 2.58242 -2.67699
lowerneck -18.6054 0.600848 -2.14427
upperneck 23.7407 0.126736 5.05397
head 10.712 0.48789 2.19966
rclavicle 2.53326e-014 3.05631e-015
rhumerus -17.4064 7.48732 -97.622
rradius 32.2418
rwrist 36.4054
rhand -33.977 -15.789
rfingers 7.12502
rthumb -7.15736 -45.648
lclavicle 2.53326e-014 3.05631e-015
lhumerus -40.6204 -12.9262 90.654
lradius 18.3042
lwrist -19.7904
lhand -38.0042 7.51775
lfingers 7.12502
lthumb -11.0433 37.2072
rfemur 23.0707 -18.1327 14.8018
rtibia 3.49861e-014
rfoot -16.0378 4.21976
rtoes -12.8867
lfemur -20.3698 7.06216 -11.716
ltibia 32.4167
lfoot -23.9485 -17.7645
ltoes -17.1826
18
root -6.96033 16.9305 -18.6844 -2.49644 -15.6609 -4.36262
lowerback 10.4929 3.58887 5.28288
upperback 3.84434 5.27575 0.716117
thorax -1.43996 2.654 -2.80047
lowerneck -18.372 0.452123 -2.30802
upperneck 23.4501 -0.105885 5.35892
head 10.5706 0.401193 2.29508
rclavicle -6.86925e-014 -3.54085e-015
rhumerus -16.7301 8.2323 -97.7848
rradius 33.0631
rwrist 35.9975
rhand -33.8906 -15.7566
rfingers 7.12502
rthumb -7.07398 -45.6184
lclavicle -6.86925e-014 -3.54085e-015
lhumerus -41.2303 -12.6006 90.1824
lradius 17.8569
lwrist -19.9992
lhand -37.7866 7.34164
lfingers 7.12502
lthumb -10.8334 37.0422
rfemur 23.4066 -18.1858 14.7537
rtibia 0
rfoot -15.9527 4.44389
rtoes -12.8658
lfemur -21.3466 8.92066 -12.4023
ltibia 32.1024
lfoot -23.763 -19.1417
ltoes -16.6115
19
root -7.00116 16.9302 -18.5786 -2.46566 -15.4094 -4.45532
lowerback 10.4018 3.65715 5.31606
upperback 3.82294 5.366 0.740708
thorax -1.40405 2.70001 -2.79607
lowerneck -18.2591 0.277644 -2.38594
upperneck 23.212 -0.343889 5.45063
head 10.4735 0.294365 2.30116
rclavicle 8.28994e-015 3.07122e-014
rhumerus -16.001 8.77672 -97.909
rradius 33.7146
rwrist 36.2964
rhand -34.0192 -15.9452
rfingers 7.12502
rthumb -7.1981 -45.8028
lclavicle 8.28994e-015 3.07122e-014
lhumerus -41.973 -12.5591 89.9305
lradius 17.6225
lwrist -19.7046
lhand -37.3861 7.55053
lfingers 7.12502
lthumb -10.4471 37.271
rfemur 23.8538 -18.2444 14.7447
rtibia 9.54166e-015
rfoot -16.0434 4.39477
rtoes -13.7647
lfemur -22.1758 10.6861 -13.0651
ltibia 31.9056
lfoot -23.7298 -20.1827
ltoes -16.0137
20
root -7.03748 16.9226 -18.4738 -2.42736 -15.0894 -4.61205
lowerback 10.3928 3.69139 5.45856
upperback 3.79634 5.42721 0.778462
thorax -1.41151 2.73065 -2.842
lowerneck -18.2571 0.19692 -2.40906
upperneck 23.1337 -0.466124 5.5245
head 10.4507 0.245246 2.31277
rclavicle 7.27676e-014 -5.19325e-015
rhumerus -15.2663 9.68158 -97.9633
rradius 34.4387
rwrist 36
rhand -34.0325 -15.7893
rfingers 7.12502
rthumb -7.21089 -45.6465
lclavicle 7.27676e-014 -5.19325e-015
lhumerus -42.1636 -10.999 88.692
lradius 16.7555
lwrist -21.2241
lhand -37.4085 7.48352
lfingers 7.12502
lthumb -10.4688 37.2029
rfemur 24.3278 -18.373 14.7937
rtibia -3.18055e-014
rfoot -16.1052 4.25133
rtoes -14.6836
lfemur -22.9821 12.6416 -13.7996
ltibia 31.7972
lfoot -23.9344 -20.9429
ltoes -15.6727
21
root -7.07279 16.9209 -18.3657 -2.35271 -14.8094 -4.55043
lowerback 10.242 3.72534 5.38949
upperback 3.79317 5.45635 0.755512
thorax -1.3344 2.74755 -2.81856
lowerneck -18.3062 0.146889 -2.53018
upperneck 23.0267 -0.521614 5.62891
head 10.4242 0.222047 2.36118
rclavicle 4.41302e-014 6.43565e-015
rhumerus -14.4918 10.5441 -97.9792
rradius 35.1156
rwrist 35.8304
rhand -34.129 -15.9801
rfingers 7.12502
rthumb -7.30406 -45.834
lclavicle 4.41302e-014 6.43565e-015
lhumerus -42.5814 -10.1324 87.9163
lradius 16.3304
lwrist -21.7426
lhand -36.8735 7.14607
lfingers 7.12502
lthumb -9.95261 36.8908
rfemur 24.6891 -18.4362 14.5942
rtibia 5.725e-014
rfoot -16.0425 4.37988
rtoes -14.7931
lfemur -23.8802 14.569 -14.7734
ltibia 31.8011
lfoot -24.1638 -21.5171
ltoes -15.7438
22
root -7.10251 16.9135 -18.2503 -2.3633 -14.5584 -4.69735
lowerback 10.2092 3.78685 5.62807
upperback 3.78906 5.55813 0.70588
thorax -1.28291 2.80217 -3.00766
lowerneck -18.3228 0.0925561 -2.32551
upperneck 22.9557 -0.678848 5.71551
head 10.41 0.178789 2.33426
rclavicle -6.33129e-014 3.62782e-015
rhumerus -13.735 11.1399 -98.0147
rradius 35.6957
rwrist 35.6981
rhand -34.0851 -15.7244
rfingers 7.12502
rthumb -7.26172 -45.5798
lclavicle -6.33129e-014 3.62782e-015
lhumerus -43.026 -9.60884 87.1428
lradius 16.0061
lwrist -22.0237
lhand -36.5112 7.43497
lfingers 7.12502
lthumb -9.60305 37.1961
rfemur 25.2298 -18.4633 14.5506
rtibia -4.13472e-014
rfoot -15.9305 4.50394
rtoes -15.2238
lfemur -24.4835 16.3431 -15.5239
ltibia 31.8253
lfoot -24.4768 -21.4577
ltoes -15.8243
23
root -7.13964 16.9046 -18.1387 -2.15937 -14.3964 -4.9897
lowerback 9.66816 3.86439 5.6385
upperback 3.98711 5.62205 0.879295
thorax -0.791408 2.85171 -2.78567
lowerneck -18.5964 0.0522594 -2.37402
upperneck 22.7784 -0.667312 5.55575
head 10.3966 0.162906 2.2856
rclavicle 6.81459e-015 7.35503e-015
rhumerus -12.6633 12.0095 -97.7906
rradius 36.1767
rwrist 35.7151
rhand -33.632 -15.3913
rfingers 7.12502
rthumb -6.82433 -45.2613
lclavicle 6.81459e-015 7.35503e-015
lhumerus -43.0258 -8.5716 86.3402
lradius 15.3892
lwrist -23.2295
lhand -36.4525 7.87931
lfingers 7.12502
lthumb -9.54638 37.6431
rfemur 25.5287 -18.4549 14.8059
rtibia 4.77083e-014
rfoot -15.9156 4.36508
rtoes -15.7365
lfemur -25.2532 18.4658 -16.1568
ltibia 31.8837
lfoot -24.5383 -21.4696
ltoes -16.1955
24
root -7.17336 16.8881 -18.0204 -2.26386 -14.454 -5.0884
lowerback 10.1016 3.99298 5.76453
upperback 3.75695 5.84074 0.782039
thorax -1.22564 2.94479 -3.02213
lowerneck -18.4509 0.0584177 -2.2989
upperneck 22.9 -0.764584 5.84846
head 10.4193 0.159884 2.36562
rclavicle -5.85172e-015 3.83654e-014
rhumerus -12.3905 12.5437 -97.9085
rradius 36.7744
rwrist 35.7672
rhand -33.4941 -15.1225
rfingers 7.12502
rthumb -6.69124 -44.9968
lclavicle -5.85172e-015 3.83654e-014
lhumerus -43.8357 -8.1608 85.6441
lradius 15.0474
lwrist -23.4645
lhand -36.1447 7.32239
lfingers 7.12502
lthumb -9.24938 37.0995
rfemur 26.1075 -18.1765 14.7495
rtibia 8.26944e-014
rfoot -15.8466 4.28594
rtoes -16.9706
lfemur -25.4448 20.0665 -16.7324
ltibia 31.9909
lfoot -24.568 -20.4617
ltoes -16.5472
25
root -7.204 16.8692 -17.9006 -2.18096 -14.1992 -5.20964
lowerback 9.96408 4.00969 5.7375
upperback 3.7457 5.85272 0.797985
thorax -1.16565 2.95244 -2.98078
lowerneck -18.4971 -0.0102621 -2.2338
upperneck 22.7364 -0.878127 5.86887
head 10.3747 0.115501 2.34282
rclavicle -1.76421e-014 1.07344e-014
rhumerus -11.7238 13.0606 -97.9389
rradius 37.2428
rwrist 36.142
rhand -33.3584 -15.2294
rfingers 7.12502
rthumb -6.56018 -45.1078
lclavicle -1.76421e-014 1.07344e-014
lhumerus -44.2497 -7.3697 84.822
lradius 14.7819
lwrist -24.2813
lhand -35.8481 7.31344
lfingers 7.12502
lthumb -8.96325 37.103
rfemur 26.5498 -18.2096 14.7118
rtibia 3.18055e-014
rfoot -15.6703 4.45866
rtoes -17.2064
lfemur -25.9681 22.2445 -17.5183
ltibia 32.1249
lfoot -24.235 -20.6107
ltoes -16.8966
26
root -7.2308 16.8507 -17.7748 -2.18443 -14.1632 -5.37972
lowerback 9.97336 4.10157 5.89508
upperback 3.71548 5.99079 0.774252
thorax -1.17002 3.02203 -3.10575
lowerneck -18.5088 -0.0822315 -2.25667
upperneck 22.6559 -1.01636 6.05386
head 10.356 0.0721948 2.392
rclavicle -8.74528e-014 -1.00386e-014
rhumerus -11.0855 14.7572 -97.7067
rradius 37.6714
rwrist 34.243
rhand -34.1625 -15.3767
rfingers 7.12502
rthumb -7.33638 -45.2295
lclavicle -8.74528e-014 -1.00386e-014
lhumerus -44.6981 -6.90481 84.2189
lradius 14.4721
lwrist -24.5939
lhand -35.6724 7.20274
lfingers 7.12502
lthumb -8.79365 36.9995
rfemur 27.058 -18.0223 14.722
rtibia 4.45278e-014
rfoot -15.3907 4.46977
rtoes -18.2857
lfemur -26 23.4365 -17.8579
ltibia 32.2483
lfoot -24.0077 -19.5511
ltoes -16.2037
